<svg width="28" height="28" viewBox="0 0 28 28" fill="none" xmlns="http://www.w3.org/2000/svg">
<path fill-rule="evenodd" clip-rule="evenodd" d="M1.16663 3.31084C1.16663 2.74213 1.39255 2.19671 1.79469 1.79457C2.19683 1.39243 2.74225 1.16651 3.31096 1.16651H24.6866C24.9685 1.16605 25.2476 1.22118 25.5081 1.32875C25.7686 1.43632 26.0054 1.59422 26.2047 1.7934C26.4041 1.99258 26.5623 2.22913 26.6702 2.48952C26.778 2.7499 26.8334 3.029 26.8333 3.31084V24.6865C26.8336 24.9684 26.7783 25.2476 26.6706 25.5081C26.5629 25.7686 26.4049 26.0053 26.2056 26.2047C26.0064 26.4041 25.7697 26.5622 25.5093 26.6701C25.2488 26.7779 24.9697 26.8333 24.6878 26.8332H3.31096C3.02926 26.8332 2.75033 26.7777 2.49009 26.6698C2.22985 26.562 1.99341 26.4039 1.79427 26.2047C1.59514 26.0055 1.43721 25.7689 1.32952 25.5086C1.22182 25.2483 1.16647 24.9694 1.16663 24.6877V3.31084ZM11.326 10.9525H14.8015V12.6978C15.3031 11.6945 16.5865 10.7915 18.515 10.7915C22.2121 10.7915 23.0883 12.79 23.0883 16.4568V23.2492H19.3468V17.2922C19.3468 15.2038 18.8451 14.0255 17.5711 14.0255C15.8036 14.0255 15.0686 15.296 15.0686 17.2922V23.2492H11.326V10.9525ZM4.90929 23.0893H8.65196V10.7915H4.90929V23.0882V23.0893ZM9.18746 6.78051C9.19452 7.10096 9.13749 7.41959 9.01974 7.71771C8.90198 8.01582 8.72587 8.28741 8.50173 8.51654C8.27759 8.74567 8.00994 8.92772 7.71449 9.05201C7.41904 9.1763 7.10174 9.24033 6.78121 9.24033C6.46068 9.24033 6.14338 9.1763 5.84793 9.05201C5.55248 8.92772 5.28483 8.74567 5.06069 8.51654C4.83655 8.28741 4.66043 8.01582 4.54268 7.71771C4.42493 7.41959 4.3679 7.10096 4.37496 6.78051C4.38881 6.1515 4.64841 5.55293 5.09816 5.11297C5.54791 4.67302 6.15205 4.42666 6.78121 4.42666C7.41037 4.42666 8.01451 4.67302 8.46426 5.11297C8.91401 5.55293 9.17361 6.1515 9.18746 6.78051Z" fill="white"/>
</svg>
