<svg width="218" height="304" viewBox="0 0 218 304" fill="none" xmlns="http://www.w3.org/2000/svg">
<path d="M191.279 24.6422C196.726 24.6422 201.141 19.9266 201.141 14.1097C201.141 8.29271 196.726 3.57715 191.279 3.57715C185.832 3.57715 181.417 8.29271 181.417 14.1097C181.417 19.9266 185.832 24.6422 191.279 24.6422Z" stroke="url(#paint0_linear_8_56)" stroke-width="3" stroke-miterlimit="10"/>
<path d="M182.247 11.2825C182.247 11.2825 184.375 11.1716 185.569 14.1096C185.569 14.1096 187.282 20.7617 193.355 18.8215C193.355 18.8215 198.909 16.5487 194.86 9.23138C194.86 9.23138 193.77 7.62379 194.238 6.45967L194.809 4.74121" stroke="url(#paint1_linear_8_56)" stroke-width="3" stroke-miterlimit="10"/>
<path d="M41.2688 91.2743C38.6216 94.8221 38.8811 100.033 42.0474 103.248L70.5441 132.407C72.5685 134.458 75.4752 135.566 78.4858 135.067L79.7835 134.846L108.073 130.189L116.014 192.719L95.3555 284.906C94.2654 291.059 97.4836 297.268 103.141 299.485C109.422 301.924 116.43 298.488 118.713 291.725L147.989 215.225L159.408 241.058L151.207 285.294C149.909 292.445 155.256 298.321 161.692 299.43C168.492 300.594 174.409 295.605 175.966 288.343L187.749 239.949C188.061 237.898 187.905 235.625 187.126 233.574L186.711 232.41L175.136 199.316L164.703 118.104L195.691 103.304L196.521 102.916C199.065 101.696 201.141 99.4232 202.127 96.3743L213.132 63.3909C214.896 58.0138 212.561 51.916 207.629 49.5323C202.387 46.9824 196.21 49.4769 193.874 55.0758L182.61 81.6842C182.61 81.6842 155.048 93.658 150.169 95.321C140.774 98.5916 129.562 97.5384 112.329 102.472L79.6278 111.064L56.737 92.771C52.844 89.8885 49.9372 88.7798 47.8609 88.4472" stroke="url(#paint2_linear_8_56)" stroke-width="4" stroke-miterlimit="10"/>
<path d="M104.387 59.1775C102.778 73.6458 112.485 86.6729 125.98 88.3913C139.476 90.0543 151.726 79.7436 153.335 65.2752C154.892 50.8623 145.238 37.7799 131.69 36.0614C118.194 34.3984 105.944 44.7646 104.387 59.1775Z" stroke="url(#paint3_linear_8_56)" stroke-width="4" stroke-miterlimit="10"/>
<path d="M23.6205 7.01388C23.6205 7.01388 -9.02873 13.7214 7.52948 45.0418C7.52948 45.0418 14.5369 56.2395 26.112 65.109C26.112 65.109 36.3896 75.0871 36.8048 75.6415C36.8048 75.6415 38.6215 76.8056 40.5421 87.1718L43.1374 99.8662C43.1374 99.8662 42.826 105.41 44.3832 105.576C44.3832 105.576 46.7709 105.909 48.5357 105.41C50.3005 104.911 52.2211 103.303 52.2211 103.303C53.4668 102.305 50.612 97.7043 50.612 97.7043L46.8747 85.3425C43.8641 75.0317 44.6946 73.3687 44.6946 73.3687C44.8503 72.3154 48.951 58.5123 48.951 58.5123C54.8683 44.6537 55.5431 31.1832 55.5431 31.1832C54.9721 -4.79361 23.6205 7.01388 23.6205 7.01388ZM13.2911 31.4604C13.8621 30.2963 15.4193 29.8528 16.5093 30.518C17.5994 31.1832 18.0146 32.7908 17.3917 33.8995C16.7689 35.0082 15.2117 35.4516 14.1735 34.731C13.0835 34.1767 12.7201 32.6245 13.2911 31.4604ZM19.1566 41.3277C18.4818 42.4918 17.1322 42.8798 16.0941 42.2701C15.0559 41.6603 14.6407 39.9973 15.2117 38.8331C15.8345 37.669 17.2879 37.281 18.378 37.9462C19.5199 38.6668 19.8313 40.1081 19.1566 41.3277ZM32.0813 18.1562C32.7042 16.992 34.1576 16.604 35.2995 17.3247C36.3896 18.0453 36.7529 19.542 36.0781 20.7061C35.4552 21.8148 34.0018 22.2029 32.9637 21.5931C31.9256 20.9279 31.5103 19.2649 32.0813 18.1562ZM33.9499 25.5289C34.5728 24.4202 36.0262 23.9768 37.0643 24.5865C38.1544 25.1963 38.5696 26.8039 37.9468 27.968C37.3239 29.1321 35.9743 29.5202 34.8843 28.855C33.7423 28.1898 33.3271 26.693 33.9499 25.5289ZM37.6872 40.1636C38.3101 38.944 39.6597 38.5005 40.8016 39.1657C41.8917 39.831 42.3069 41.3831 41.684 42.5472C41.0611 43.6559 39.6597 44.0994 38.5696 43.4896C37.4277 42.8244 37.0124 41.3831 37.6872 40.1636ZM35.8705 32.7908C36.4934 31.6821 37.9468 31.2941 38.9849 31.9039C40.023 32.5136 40.4383 34.2321 39.8154 35.3408C39.1406 36.5049 37.7391 36.8929 36.6491 36.1723C35.5591 35.5071 35.1957 33.9549 35.8705 32.7908ZM25.2815 20.0964C25.9044 18.9877 27.3578 18.5996 28.3959 19.2094C29.5379 19.8746 29.8493 21.3714 29.2264 22.5909C28.5517 23.755 27.254 24.1431 26.164 23.4224C24.9701 22.7572 24.6068 21.3159 25.2815 20.0964ZM31.0951 29.9082C30.4203 31.1278 29.0707 31.5158 27.9288 30.8506C26.8387 30.1854 26.4235 28.5778 27.0464 27.4691C27.6173 26.4159 29.1745 25.9724 30.2127 26.5267C31.3027 27.1365 31.718 28.7441 31.0951 29.9082ZM28.915 34.8973C29.486 33.7332 31.0432 33.2897 32.0813 33.9549C33.1713 34.6201 33.5347 36.2277 32.9118 37.3918C32.2889 38.556 30.9394 38.944 29.8493 38.2788C28.7074 37.5581 28.2921 36.0614 28.915 34.8973ZM34.7804 44.7092C34.1576 45.8179 32.6004 46.2059 31.5622 45.5407C30.4722 44.82 30.1608 43.2679 30.8355 42.1038C31.5103 40.9951 32.9118 40.607 33.9499 41.2722C35.04 41.9929 35.4552 43.6005 34.7804 44.7092ZM18.3261 22.092C18.897 20.9833 20.5061 20.5398 21.5443 21.1496C22.5305 21.7594 22.9457 23.367 22.3748 24.4757C21.7519 25.6398 20.3504 26.0833 19.2085 25.4181C18.1184 24.8083 17.7032 23.2561 18.3261 22.092ZM20.1947 29.5202C20.8176 28.3561 22.3229 27.9126 23.361 28.5224C24.451 29.1876 24.8144 30.6843 24.1915 31.9039C23.5167 33.1234 22.1671 33.5115 21.0252 32.7908C19.9871 32.1256 19.5718 30.6843 20.1947 29.5202ZM23.8801 44.2103C24.5029 42.9907 25.9044 42.6027 27.0464 43.2679C28.1883 43.9331 28.5517 45.4298 27.9288 46.6494C27.3059 47.8135 25.8006 48.2015 24.7106 47.5363C23.7243 46.8711 23.3091 45.3189 23.8801 44.2103ZM22.0633 36.7821C22.6862 35.6734 24.1396 35.2853 25.1777 35.8951C26.3197 36.5603 26.7349 38.0571 26.0601 39.2766C25.4373 40.4962 24.0358 40.9396 22.8938 40.219C21.8557 39.5538 21.4404 37.8908 22.0633 36.7821ZM43.5527 57.9579C42.2031 61.3394 40.6459 64.6101 40.2826 68.2687C40.2306 68.6568 39.2963 68.9894 39.2963 68.9894C39.2963 68.9894 38.1025 69.3774 37.8429 68.8785C35.611 64.9427 31.5103 62.7807 28.2402 59.8427C27.5654 59.2329 26.8387 58.6786 26.112 57.8471C34.2095 59.0112 39.0368 57.6808 45.4732 52.5254C45.1099 54.5765 44.2275 56.2395 43.5527 57.9579ZM46.7709 33.3451C46.148 34.5093 44.6946 34.8973 43.6046 34.1767C42.4626 33.456 42.0993 32.0702 42.826 30.8506C43.4489 29.7419 44.8503 29.2984 45.8885 29.9637C46.9266 30.5734 47.3418 32.2365 46.7709 33.3451ZM44.8503 26.0278C44.2275 27.1365 42.7741 27.58 41.7359 26.9702C40.6459 26.3604 40.2306 24.7528 40.8535 23.5887C41.4764 22.3692 42.9298 21.9811 44.0198 22.6463C45.1099 23.3115 45.4732 24.8637 44.8503 26.0278Z" stroke="url(#paint4_linear_8_56)" stroke-width="3" stroke-miterlimit="10"/>
<path d="M44.5908 73.3687C44.5908 73.3687 43.7603 74.9762 46.7709 85.3425L50.5081 97.7043C50.5081 97.7043 53.363 102.361 52.1173 103.303C52.1173 103.303 50.1967 104.911 48.4319 105.41C46.6671 105.909 44.2794 105.576 44.2794 105.576C42.7741 105.41 43.0336 99.8662 43.0336 99.8662L40.4383 87.1718C38.4658 76.861 36.701 75.6415 36.701 75.6415C36.701 75.6415 38.4139 76.0849 40.8535 75.3643C40.9054 75.3643 43.9679 74.3665 44.5908 73.3687Z" stroke="url(#paint5_linear_8_56)" stroke-width="4" stroke-miterlimit="10" stroke-linejoin="round"/>
<path d="M46.9785 99.4231C47.6533 99.2568 48.3281 99.035 48.951 98.7024C49.2624 98.5361 49.47 98.259 49.7815 98.1481C50.041 97.9818 50.3524 97.8155 50.7158 97.5938H50.7677C50.7677 98.0372 50.5601 98.4253 50.2486 98.7579C49.9372 99.0905 49.5738 99.2013 49.2105 99.3122C48.4838 99.534 47.7571 99.5894 47.0304 99.5339C46.9785 99.5339 46.9266 99.4785 46.9785 99.4231C46.9785 99.4231 46.9266 99.4785 46.9785 99.4231Z" fill="url(#paint6_linear_8_56)"/>
<defs>
<linearGradient id="paint0_linear_8_56" x1="191.279" y1="3.57715" x2="191.279" y2="24.6422" gradientUnits="userSpaceOnUse">
<stop stop-color="#009861"/>
<stop offset="1" stop-color="#89FFA4"/>
</linearGradient>
<linearGradient id="paint1_linear_8_56" x1="189.293" y1="4.74121" x2="189.293" y2="19.1762" gradientUnits="userSpaceOnUse">
<stop stop-color="#009861"/>
<stop offset="1" stop-color="#89FFA4"/>
</linearGradient>
<linearGradient id="paint2_linear_8_56" x1="126.589" y1="48.5317" x2="126.589" y2="300.269" gradientUnits="userSpaceOnUse">
<stop stop-color="#009861"/>
<stop offset="1" stop-color="#89FFA4"/>
</linearGradient>
<linearGradient id="paint3_linear_8_56" x1="128.856" y1="35.8862" x2="128.856" y2="88.5673" gradientUnits="userSpaceOnUse">
<stop stop-color="#009861"/>
<stop offset="1" stop-color="#89FFA4"/>
</linearGradient>
<linearGradient id="paint4_linear_8_56" x1="29.1936" y1="5.15967" x2="29.1936" y2="105.685" gradientUnits="userSpaceOnUse">
<stop stop-color="#009861"/>
<stop offset="1" stop-color="#89FFA4"/>
</linearGradient>
<linearGradient id="paint5_linear_8_56" x1="44.5665" y1="73.3687" x2="44.5665" y2="105.685" gradientUnits="userSpaceOnUse">
<stop stop-color="#009861"/>
<stop offset="1" stop-color="#89FFA4"/>
</linearGradient>
<linearGradient id="paint6_linear_8_56" x1="48.8616" y1="97.5938" x2="48.8616" y2="99.5539" gradientUnits="userSpaceOnUse">
<stop stop-color="#009861"/>
<stop offset="1" stop-color="#89FFA4"/>
</linearGradient>
</defs>
</svg>

