<svg width="31" height="29" viewBox="0 0 31 29" fill="none" xmlns="http://www.w3.org/2000/svg">
<g clip-path="url(#clip0_8_42)">
<path d="M29.3144 -0.604004H1.68562C1.02118 -0.604004 0.484375 -0.0640299 0.484375 0.604329V28.396C0.484375 29.0644 1.02118 29.6043 1.68562 29.6043H29.3144C29.9788 29.6043 30.5156 29.0644 30.5156 28.396V0.604329C30.5156 -0.0640299 29.9788 -0.604004 29.3144 -0.604004ZM23.5822 10.3352C23.5934 10.5127 23.5934 10.6977 23.5934 10.8789C23.5934 16.4222 19.3966 22.8075 11.7273 22.8075C9.36236 22.8075 7.17008 22.1164 5.32316 20.927C5.66101 20.9647 5.98385 20.9799 6.32921 20.9799C8.28124 20.9799 10.0756 20.3153 11.5058 19.19C9.67394 19.1522 8.13484 17.9439 7.60929 16.2825C8.25121 16.3769 8.82931 16.3769 9.49 16.2069C8.54674 16.0142 7.69891 15.4989 7.09056 14.7486C6.48221 13.9983 6.15085 13.0593 6.15277 12.091V12.0382C6.7046 12.3516 7.35402 12.5442 8.03348 12.5706C7.4623 12.1877 6.99387 11.6689 6.66973 11.0603C6.34559 10.4517 6.17576 9.772 6.1753 9.08154C6.1753 8.2999 6.37801 7.58623 6.74214 6.96696C7.78911 8.26341 9.09558 9.32375 10.5766 10.079C12.0577 10.8343 13.6801 11.2677 15.3386 11.3509C14.7492 8.50003 16.8664 6.19287 19.4116 6.19287C20.6128 6.19287 21.6939 6.69886 22.456 7.51449C23.3982 7.33701 24.2992 6.98206 25.1025 6.50628C24.7909 7.47672 24.1377 8.29613 23.2706 8.81344C24.1115 8.72282 24.9223 8.4887 25.6731 8.16019C25.1062 8.99847 24.3968 9.74235 23.5822 10.3352Z" fill="white"/>
</g>
<defs>
<clipPath id="clip0_8_42">
<rect width="31" height="29" fill="white"/>
</clipPath>
</defs>
</svg>
