<svg width="29" height="29" viewBox="0 0 29 29" fill="none" xmlns="http://www.w3.org/2000/svg">
<g clip-path="url(#clip0_8_40)">
<path d="M27.4231 0.453125H1.57687C0.955301 0.453125 0.453125 0.955301 0.453125 1.57687V27.4231C0.453125 28.0447 0.955301 28.5469 1.57687 28.5469H27.4231C28.0447 28.5469 28.5469 28.0447 28.5469 27.4231V1.57687C28.5469 0.955301 28.0447 0.453125 27.4231 0.453125ZM24.1783 8.65299H21.9343C20.1749 8.65299 19.8343 9.48878 19.8343 10.7179V13.4254H24.0343L23.4865 17.6641H19.8343V28.5469H15.4552V17.6676H11.7925V13.4254H15.4552V10.3C15.4552 6.67238 17.6711 4.69528 20.9089 4.69528C22.4611 4.69528 23.792 4.81117 24.1818 4.86384V8.65299H24.1783Z" fill="white"/>
</g>
<defs>
<clipPath id="clip0_8_40">
<rect width="29" height="29" fill="white"/>
</clipPath>
</defs>
</svg>
