<svg width="29" height="29" viewBox="0 0 29 29" fill="none" xmlns="http://www.w3.org/2000/svg">
<g clip-path="url(#clip0_8_44)">
<path d="M28.9146 8.7595C28.8983 7.58286 28.6699 6.41791 28.2395 5.31678C27.8663 4.38798 27.2963 3.54446 26.5658 2.84013C25.8354 2.13579 24.9607 1.58611 23.9975 1.22623C22.8702 0.818193 21.6793 0.597561 20.4756 0.573728C18.9257 0.506924 18.4343 0.488281 14.5 0.488281C10.5656 0.488281 10.0613 0.488281 8.52273 0.573728C7.31948 0.597737 6.12918 0.818366 5.00245 1.22623C4.0391 1.58586 3.16421 2.13545 2.43375 2.83982C1.70329 3.54419 1.13335 4.38784 0.760395 5.31678C0.3364 6.40293 0.108093 7.55099 0.0853394 8.71134C0.0160616 10.2074 -0.00488281 10.6813 -0.00488281 14.4751C-0.00488281 18.2689 -0.00488282 18.7536 0.0853394 20.2388C0.109506 21.4009 0.336673 22.5474 0.760395 23.6365C1.13398 24.5652 1.70434 25.4085 2.43504 26.1125C3.16575 26.8166 4.04072 27.366 5.00406 27.7255C6.12771 28.1499 7.31822 28.3864 8.52434 28.4246C10.0758 28.4914 10.5672 28.5116 14.5016 28.5116C18.4359 28.5116 18.9402 28.5116 20.4788 28.4246C21.6825 28.4017 22.8735 28.1816 24.0007 27.7737C24.9636 27.4134 25.8382 26.8635 26.5685 26.1593C27.2989 25.455 27.8691 24.6117 28.2427 23.6831C28.6665 22.5956 28.8936 21.4491 28.9178 20.2854C28.9871 18.7909 29.008 18.3171 29.008 14.5217C29.0048 10.7279 29.0048 10.2463 28.9146 8.7595ZM14.4903 21.6495C10.3755 21.6495 7.04212 18.4351 7.04212 14.4673C7.04212 10.4995 10.3755 7.28516 14.4903 7.28516C16.4657 7.28516 18.3601 8.04185 19.7569 9.38876C21.1537 10.7357 21.9385 12.5625 21.9385 14.4673C21.9385 16.3721 21.1537 18.199 19.7569 19.5459C18.3601 20.8928 16.4657 21.6495 14.4903 21.6495ZM22.2349 8.69425C22.0068 8.69445 21.7808 8.65127 21.57 8.56718C21.3592 8.48309 21.1677 8.35973 21.0063 8.20418C20.845 8.04862 20.7171 7.86392 20.6299 7.66064C20.5427 7.45735 20.4979 7.23948 20.4981 7.0195C20.4981 6.79967 20.543 6.58199 20.6303 6.37889C20.7175 6.1758 20.8454 5.99126 21.0066 5.83582C21.1678 5.68038 21.3591 5.55707 21.5698 5.47295C21.7804 5.38882 22.0061 5.34552 22.2341 5.34552C22.4621 5.34552 22.6878 5.38882 22.8984 5.47295C23.109 5.55707 23.3004 5.68038 23.4616 5.83582C23.6228 5.99126 23.7507 6.1758 23.8379 6.37889C23.9252 6.58199 23.9701 6.79967 23.9701 7.0195C23.9701 7.94542 23.1935 8.69425 22.2349 8.69425Z" fill="white"/>
<path d="M14.4904 19.1325C17.1624 19.1325 19.3286 17.0437 19.3286 14.4671C19.3286 11.8905 17.1624 9.80176 14.4904 9.80176C11.8183 9.80176 9.65222 11.8905 9.65222 14.4671C9.65222 17.0437 11.8183 19.1325 14.4904 19.1325Z" fill="white"/>
</g>
<defs>
<clipPath id="clip0_8_44">
<rect width="29" height="29" fill="white"/>
</clipPath>
</defs>
</svg>
